<svg width="1540" height="1507" viewBox="0 0 1540 1507" fill="none" xmlns="http://www.w3.org/2000/svg">
<g clip-path="url(#clip0_7_14)">
<g filter="url(#filter0_f_7_14)">
<path d="M942.351 344.926C1106.01 346.441 1206.8 330.667 1265.97 311.048C1321.92 292.5 1371.27 242.545 1423.45 215.121L1489.74 180.273C1556.59 145.133 1638.83 180.573 1659.19 253.302C1666.08 277.892 1665.25 304.097 1654.06 327.052C1571.83 495.773 1311.25 813.138 791.844 975.618C232.822 1150.49 33.3418 948.145 3.47967 825.112C-8.46529 705.663 -13.0044 442.397 64.3987 344.926C116.265 279.613 199.991 257.85 268.997 254.193C326.099 251.168 381.172 270.416 436.474 284.957C539.363 312.009 714.114 342.813 942.351 344.926Z" fill="#612B10"/>
</g>
<g filter="url(#filter1_f_7_14)">
<path d="M964.335 479.935C1128 481.45 1228.78 465.676 1287.96 446.057C1343.9 427.508 1393.26 377.554 1445.43 350.13L1511.73 315.282C1578.58 280.141 1660.81 315.582 1681.18 388.31C1688.06 412.9 1687.23 439.106 1676.04 462.061C1593.81 630.782 1333.23 948.146 813.829 1110.63C254.806 1285.5 55.3262 1083.15 25.464 960.121C13.5191 840.671 8.97998 577.405 86.3831 479.935C138.25 414.621 221.975 392.859 290.982 389.202C348.084 386.176 403.156 405.425 458.459 419.965C561.348 447.017 736.098 477.821 964.335 479.935Z" fill="#E48F4C"/>
</g>
<g filter="url(#filter2_f_7_14)">
<path d="M1010.57 710.971C1153.59 712.296 1241.66 698.511 1293.37 681.367C1342.26 665.159 1385.39 621.506 1430.98 597.542L1488.91 567.09C1547.33 536.382 1619.19 567.352 1636.98 630.906C1643 652.394 1642.27 675.293 1632.5 695.352C1560.64 842.788 1332.93 1120.12 879.053 1262.1C390.552 1414.91 216.237 1238.09 190.142 1130.58C179.704 1026.2 175.738 796.146 243.376 710.971C286.017 657.276 353.299 637.265 411.329 632.423C468.313 627.669 523.582 647.304 579.031 661.274C670.092 684.216 818.705 709.195 1010.57 710.971Z" fill="#F3C78B"/>
</g>
<g filter="url(#filter3_f_7_14)">
<path d="M174.111 1164.23C175.169 1165.57 177.641 1168.17 181.287 1171.76M181.287 1171.76L108.481 888.327L251.329 1044.01L625 1309.5M181.287 1171.76C215.488 1205.46 581.784 1310.45 625 1309.5M625 1309.5C696.102 1307.94 1386.21 1037.01 1414.5 1014.5L625 1309.5Z" stroke="url(#paint0_linear_7_14)" stroke-width="66.3683" stroke-linecap="round"/>
</g>
<g filter="url(#filter4_f_7_14)">
<path d="M862.601 812.723C927.174 813.155 978.246 810.904 1018.3 807.105C1105.88 798.799 1201.79 748.679 1284.2 717.905L1562.19 614.095C1588.24 604.366 1616 623.63 1616 651.441C1616 657.972 1614.5 664.462 1610.76 669.82C1546.4 762.177 1145.91 1054.52 753.48 1143.26C460.639 1209.48 303.881 1172.49 231.267 1122.55C188.749 1093.3 176.883 1038.63 177.002 987.028C177.149 922.828 187.788 847.564 226.065 812.723C263.068 779.04 322.437 767.458 371.996 765.27C414.984 763.373 457.173 774.085 499.473 781.98C574.516 795.988 699.789 811.633 862.601 812.723Z" fill="white"/>
</g>
</g>
<defs>
<filter id="filter0_f_7_14" x="-169.195" y="0.665741" width="1998.71" height="1209.07" filterUnits="userSpaceOnUse" color-interpolation-filters="sRGB">
<feFlood flood-opacity="0" result="BackgroundImageFix"/>
<feBlend mode="normal" in="SourceGraphic" in2="BackgroundImageFix" result="shape"/>
<feGaussianBlur stdDeviation="82.9604" result="effect1_foregroundBlur_7_14"/>
</filter>
<filter id="filter1_f_7_14" x="-147.211" y="135.674" width="1998.7" height="1209.07" filterUnits="userSpaceOnUse" color-interpolation-filters="sRGB">
<feFlood flood-opacity="0" result="BackgroundImageFix"/>
<feBlend mode="normal" in="SourceGraphic" in2="BackgroundImageFix" result="shape"/>
<feGaussianBlur stdDeviation="82.9604" result="effect1_foregroundBlur_7_14"/>
</filter>
<filter id="filter2_f_7_14" x="18.3194" y="389.209" width="1788.43" height="1098.4" filterUnits="userSpaceOnUse" color-interpolation-filters="sRGB">
<feFlood flood-opacity="0" result="BackgroundImageFix"/>
<feBlend mode="normal" in="SourceGraphic" in2="BackgroundImageFix" result="shape"/>
<feGaussianBlur stdDeviation="82.9604" result="effect1_foregroundBlur_7_14"/>
</filter>
<filter id="filter3_f_7_14" x="-89.5805" y="699.971" width="1690.66" height="808.639" filterUnits="userSpaceOnUse" color-interpolation-filters="sRGB">
<feFlood flood-opacity="0" result="BackgroundImageFix"/>
<feBlend mode="normal" in="SourceGraphic" in2="BackgroundImageFix" result="shape"/>
<feGaussianBlur stdDeviation="82.9604" result="effect1_foregroundBlur_7_14"/>
</filter>
<filter id="filter4_f_7_14" x="11.0802" y="445.619" width="1770.84" height="899.302" filterUnits="userSpaceOnUse" color-interpolation-filters="sRGB">
<feFlood flood-opacity="0" result="BackgroundImageFix"/>
<feBlend mode="normal" in="SourceGraphic" in2="BackgroundImageFix" result="shape"/>
<feGaussianBlur stdDeviation="82.9604" result="effect1_foregroundBlur_7_14"/>
</filter>
<linearGradient id="paint0_linear_7_14" x1="274.884" y1="1291.57" x2="509.191" y2="1360.09" gradientUnits="userSpaceOnUse">
<stop stop-color="#0082FF"/>
<stop offset="1" stop-color="#0076BF"/>
</linearGradient>
<clipPath id="clip0_7_14">
<rect width="1540" height="1507" fill="white"/>
</clipPath>
</defs>
</svg>
